<svg xmlns="http://www.w3.org/2000/svg" viewBox="0 0 128 128" role="img" aria-label="Hevi Explorer logo">
  <defs>
    <linearGradient id="bg" x1="14" y1="10" x2="116" y2="118" gradientUnits="userSpaceOnUse">
      <stop stop-color="#25F4D0"/>
      <stop offset="0.48" stop-color="#2F8CFF"/>
      <stop offset="1" stop-color="#7A3CFF"/>
    </linearGradient>
    <linearGradient id="shine" x1="34" y1="24" x2="92" y2="104" gradientUnits="userSpaceOnUse">
      <stop stop-color="#FFFFFF" stop-opacity="0.96"/>
      <stop offset="1" stop-color="#D9FFF8" stop-opacity="0.78"/>
    </linearGradient>
    <filter id="shadow" x="-20%" y="-20%" width="140%" height="140%">
      <feDropShadow dx="0" dy="12" stdDeviation="12" flood-color="#06101E" flood-opacity="0.36"/>
    </filter>
  </defs>
  <rect width="128" height="128" rx="31" fill="#08111F"/>
  <rect x="8" y="8" width="112" height="112" rx="27" fill="url(#bg)" filter="url(#shadow)"/>
  <path d="M29 47c0-6.1 4.9-11 11-11h18.4c3.2 0 6.2 1.4 8.3 3.8l6.1 7.2H91c6.1 0 11 4.9 11 11v28c0 6.1-4.9 11-11 11H40c-6.1 0-11-4.9-11-11V47Z" fill="#07111F" fill-opacity="0.74"/>
  <path d="M38 57.5c0-3.6 2.9-6.5 6.5-6.5H90c3.6 0 6.5 2.9 6.5 6.5V85c0 3.6-2.9 6.5-6.5 6.5H44.5c-3.6 0-6.5-2.9-6.5-6.5V57.5Z" fill="url(#shine)" fill-opacity="0.96"/>
  <path d="M49 79V61h8v6.3h14V61h8v18h-8v-6.4H57V79h-8Z" fill="#0A1626"/>
  <path d="M92 35.5c6.6 5.9 10.8 14.5 10.8 24.1" stroke="#FFFFFF" stroke-width="5" stroke-linecap="round" opacity="0.74"/>
  <path d="M28 92.5c-5.2-5.5-8.4-12.9-8.4-21.1" stroke="#FFFFFF" stroke-width="5" stroke-linecap="round" opacity="0.46"/>
  <circle cx="99" cy="30" r="5.8" fill="#FFB84D"/>
</svg>
